<svg width="622" height="126" viewBox="0 0 622 126" fill="none" xmlns="http://www.w3.org/2000/svg">
<rect width="18.2143" height="5.82857" rx="2.91429" transform="matrix(-1 0 0 1 90.189 73.1027)" fill="#FF6A00"/>
<rect width="18.2143" height="5.82857" rx="2.91429" transform="matrix(-1 0 0 1 90.189 81.1169)" fill="#FF6A00"/>
<rect width="18.2143" height="5.82857" rx="2.91429" transform="matrix(-1 0 0 1 90.189 89.1312)" fill="#FF6A00"/>
<rect width="18.2143" height="5.82857" rx="2.91429" transform="matrix(-1 0 0 1 90.189 97.1455)" fill="#FF6A00"/>
<rect width="19.3071" height="5.82857" rx="2.91429" transform="matrix(-1 0 0 1 68.5142 25.017)" fill="#FF6A00"/>
<rect width="18.2143" height="5.82857" rx="2.91429" transform="matrix(-1 0 0 1 90.5532 25.017)" fill="#FF6A00"/>
<rect width="44.8071" height="5.82857" rx="2.91429" transform="matrix(-1 0 0 1 139.186 25.017)" fill="#FF6A00"/>
<rect width="18.2143" height="5.82857" rx="2.91429" transform="matrix(-1 0 0 1 90.5532 8.9884)" fill="#FF6A00"/>
<rect width="45.3536" height="5.82857" rx="2.91429" transform="matrix(-1 0 0 1 162.135 8.9884)" fill="#FF6A00"/>
<rect width="18.2143" height="5.82857" rx="2.91429" transform="matrix(-1 0 0 1 90.5532 0.974121)" fill="#FF6A00"/>
<rect width="32.2393" height="5.82857" rx="2.91429" transform="matrix(-1 0 0 1 160.86 0.974121)" fill="#FF6A00"/>
<rect width="8.01429" height="5.82857" rx="2.91429" transform="matrix(-1 0 0 1 61.0459 17.0027)" fill="#FF6A00"/>
<rect width="18.2143" height="5.82857" rx="2.91429" transform="matrix(-1 0 0 1 90.5532 17.0027)" fill="#FF6A00"/>
<rect width="45.1714" height="5.82857" rx="2.91429" transform="matrix(-1 0 0 1 150.66 17.0027)" fill="#FF6A00"/>
<rect width="81.7821" height="5.82857" rx="2.91429" transform="matrix(-1 0 0 1 122.246 33.0312)" fill="#FFD54F"/>
<rect width="65.025" height="5.82857" rx="2.91429" transform="matrix(-1 0 0 1 113.868 41.0455)" fill="#FFD54F"/>
<rect width="44.4429" height="5.82857" rx="2.91429" transform="matrix(-1 0 0 1 103.577 49.0598)" fill="#FFD54F"/>
<rect width="67.7571" height="5.82857" rx="2.91429" transform="matrix(-1 0 0 1 115.233 57.0741)" fill="#FFD54F"/>
<rect width="91.2536" height="5.82857" rx="2.91429" transform="matrix(-1 0 0 1 126.982 65.0884)" fill="#FFD54F"/>
<rect width="34.7893" height="5.82857" rx="2.91429" transform="matrix(-1 0 0 1 129.35 73.1027)" fill="#FF6A00"/>
<rect width="19.4893" height="5.82857" rx="2.91429" transform="matrix(-1 0 0 1 125.707 81.1169)" fill="#FF6A00"/>
<rect width="43.1679" height="5.82857" rx="2.91429" transform="matrix(-1 0 0 1 67.603 73.1027)" fill="#FF6A00"/>
<rect width="43.1679" height="5.82857" rx="2.91429" transform="matrix(-1 0 0 1 55.582 81.1169)" fill="#FF6A00"/>
<rect width="43.1679" height="5.82857" rx="2.91429" transform="matrix(-1 0 0 1 43.9248 89.1312)" fill="#FF6A00"/>
<rect width="32.0571" height="5.82857" rx="2.91429" transform="matrix(-1 0 0 1 33.3604 97.1455)" fill="#FF6A00"/>
<path d="M214.685 98.9741V5.84912H277.31V18.0366H228.56V45.4741H273.685V57.5366H228.56V86.7866H277.31V98.9741H214.685ZM283.878 98.9741V32.9741H296.69V46.9116H295.44C296.69 43.5783 298.357 40.7866 300.44 38.5366C302.565 36.245 305.003 34.5366 307.753 33.4116C310.503 32.245 313.378 31.6616 316.378 31.6616C321.503 31.6616 325.878 33.1408 329.503 36.0991C333.169 39.0158 335.419 42.62 336.253 46.9116H334.19C335.107 43.995 336.586 41.3908 338.628 39.0991C340.711 36.8075 343.253 34.995 346.253 33.6616C349.253 32.3283 352.586 31.6616 356.253 31.6616C360.378 31.6616 364.107 32.5575 367.44 34.3491C370.774 36.1408 373.419 38.8075 375.378 42.3491C377.336 45.8491 378.315 50.245 378.315 55.5366V98.9741H365.065V56.6616C365.065 51.9533 363.753 48.5366 361.128 46.4116C358.503 44.2866 355.399 43.2241 351.815 43.2241C348.899 43.2241 346.378 43.8491 344.253 45.0991C342.128 46.3491 340.482 48.0575 339.315 50.2241C338.149 52.3908 337.565 54.8908 337.565 57.7241V98.9741H324.565V55.7866C324.565 51.995 323.336 48.9533 320.878 46.6616C318.461 44.37 315.378 43.2241 311.628 43.2241C309.086 43.2241 306.69 43.8283 304.44 45.0366C302.232 46.245 300.44 48.0366 299.065 50.4116C297.732 52.745 297.065 55.6616 297.065 59.1616V98.9741H283.878ZM416.32 100.474C409.779 100.474 404.154 98.995 399.445 96.0366C394.779 93.0783 391.174 89.0158 388.633 83.8491C386.133 78.6408 384.883 72.7241 384.883 66.0991C384.883 59.3491 386.195 53.3908 388.82 48.2241C391.445 43.0158 395.07 38.9325 399.695 35.9741C404.32 32.9741 409.633 31.4741 415.633 31.4741C420.299 31.4741 424.508 32.3075 428.258 33.9741C432.049 35.6408 435.299 38.0158 438.008 41.0991C440.716 44.1408 442.799 47.7658 444.258 51.9741C445.716 56.1825 446.445 60.8491 446.445 65.9741V69.5366H390.82V59.5366H439.508L433.695 62.5991C433.695 58.5158 432.966 54.9741 431.508 51.9741C430.049 48.9325 427.966 46.5991 425.258 44.9741C422.591 43.3075 419.424 42.4741 415.758 42.4741C412.133 42.4741 408.987 43.3075 406.32 44.9741C403.654 46.5991 401.57 48.9325 400.07 51.9741C398.612 54.9741 397.883 58.5158 397.883 62.5991V68.2866C397.883 72.4533 398.612 76.1408 400.07 79.3491C401.529 82.5158 403.633 84.995 406.383 86.7866C409.174 88.5783 412.549 89.4741 416.508 89.4741C419.383 89.4741 421.924 89.0366 424.133 88.1616C426.341 87.245 428.174 85.995 429.633 84.4116C431.091 82.8283 432.133 80.995 432.758 78.9116H445.445C444.654 83.1616 442.883 86.9116 440.133 90.1616C437.424 93.37 434.008 95.8908 429.883 97.7241C425.799 99.5575 421.279 100.474 416.32 100.474ZM452.763 98.9741V32.9741H465.388V43.6616H465.638C466.846 40.0366 468.742 37.2241 471.325 35.2241C473.95 33.1825 477.367 32.1616 481.575 32.1616C482.575 32.1616 483.492 32.2033 484.325 32.2866C485.2 32.3283 485.888 32.3908 486.388 32.4741V44.7866C485.888 44.6616 484.992 44.5366 483.7 44.4116C482.409 44.245 480.992 44.1616 479.45 44.1616C476.992 44.1616 474.721 44.7241 472.638 45.8491C470.596 46.9741 468.971 48.7033 467.763 51.0366C466.554 53.37 465.95 56.3491 465.95 59.9741V98.9741H452.763ZM518.955 125.974C513.539 125.974 508.768 125.162 504.643 123.537C500.559 121.953 497.268 119.62 494.768 116.537C492.268 113.495 490.726 109.828 490.143 105.537H503.33C503.914 107.662 504.914 109.432 506.33 110.849C507.789 112.307 509.58 113.391 511.705 114.099C513.872 114.849 516.289 115.224 518.955 115.224C524.289 115.224 528.455 113.787 531.455 110.912C534.455 108.037 535.955 103.932 535.955 98.5991V88.5991H535.893C534.393 91.1408 532.601 93.245 530.518 94.9116C528.476 96.5783 526.184 97.8283 523.643 98.6616C521.143 99.4533 518.434 99.8491 515.518 99.8491C509.809 99.8491 504.789 98.4116 500.455 95.5366C496.164 92.62 492.83 88.62 490.455 83.5366C488.08 78.4116 486.893 72.495 486.893 65.7866C486.893 59.0783 488.08 53.1616 490.455 48.0366C492.872 42.87 496.226 38.8491 500.518 35.9741C504.809 33.0991 509.789 31.6616 515.455 31.6616C518.33 31.6616 521.039 32.0575 523.58 32.8491C526.164 33.6408 528.497 34.8908 530.58 36.5991C532.705 38.2658 534.497 40.4116 535.955 43.0366H536.018V32.9741H549.018V98.0991C549.018 104.766 547.664 110.141 544.955 114.224C542.289 118.307 538.664 121.287 534.08 123.162C529.539 125.037 524.497 125.974 518.955 125.974ZM518.205 88.5366C521.955 88.5366 525.205 87.5991 527.955 85.7241C530.747 83.8491 532.893 81.2033 534.393 77.7866C535.934 74.3283 536.705 70.3075 536.705 65.7241C536.705 61.0991 535.934 57.0783 534.393 53.6616C532.893 50.245 530.747 47.5991 527.955 45.7241C525.205 43.8491 521.955 42.9116 518.205 42.9116C514.664 42.9116 511.539 43.7866 508.83 45.5366C506.164 47.245 504.059 49.8075 502.518 53.2241C501.018 56.5991 500.268 60.7658 500.268 65.7241C500.268 70.6408 501.018 74.8075 502.518 78.2241C504.059 81.5991 506.164 84.1616 508.83 85.9116C511.539 87.6616 514.664 88.5366 518.205 88.5366ZM586.96 100.474C580.419 100.474 574.794 98.995 570.085 96.0366C565.419 93.0783 561.814 89.0158 559.273 83.8491C556.773 78.6408 555.523 72.7241 555.523 66.0991C555.523 59.3491 556.835 53.3908 559.46 48.2241C562.085 43.0158 565.71 38.9325 570.335 35.9741C574.96 32.9741 580.273 31.4741 586.273 31.4741C590.939 31.4741 595.148 32.3075 598.898 33.9741C602.689 35.6408 605.939 38.0158 608.648 41.0991C611.356 44.1408 613.439 47.7658 614.898 51.9741C616.356 56.1825 617.085 60.8491 617.085 65.9741V69.5366H561.46V59.5366H610.148L604.335 62.5991C604.335 58.5158 603.606 54.9741 602.148 51.9741C600.689 48.9325 598.606 46.5991 595.898 44.9741C593.231 43.3075 590.064 42.4741 586.398 42.4741C582.773 42.4741 579.627 43.3075 576.96 44.9741C574.294 46.5991 572.21 48.9325 570.71 51.9741C569.252 54.9741 568.523 58.5158 568.523 62.5991V68.2866C568.523 72.4533 569.252 76.1408 570.71 79.3491C572.169 82.5158 574.273 84.995 577.023 86.7866C579.814 88.5783 583.189 89.4741 587.148 89.4741C590.023 89.4741 592.564 89.0366 594.773 88.1616C596.981 87.245 598.814 85.995 600.273 84.4116C601.731 82.8283 602.773 80.995 603.398 78.9116H616.085C615.294 83.1616 613.523 86.9116 610.773 90.1616C608.064 93.37 604.648 95.8908 600.523 97.7241C596.439 99.5575 591.919 100.474 586.96 100.474Z" fill="white"/>
</svg>
