<svg width="335" height="60" viewBox="0 0 335 60" fill="none" xmlns="http://www.w3.org/2000/svg">
<path d="M22.7727 23.8534V55.8154C22.7727 56.2041 22.8505 56.5151 23.006 56.7483C23.1616 56.9556 23.395 57.0981 23.7061 57.1758L25.5342 57.5257C25.8194 57.6034 25.962 57.72 25.962 57.8755C25.962 58.0569 25.8453 58.1476 25.612 58.1476H8.22619C8.14841 58.1476 8.07062 58.1217 7.99283 58.0698C7.94097 58.018 7.91504 57.9532 7.91504 57.8755C7.91504 57.7977 7.94097 57.733 7.99283 57.6811C8.04469 57.6293 8.14841 57.5904 8.30398 57.5645L10.1709 57.1758C10.5339 57.0981 10.7803 56.9556 10.9099 56.7483C11.0395 56.5151 11.1044 56.217 11.1044 55.8543C11.1044 55.8543 11.1044 31.3484 11.1044 26.9316C14.1276 22.3404 19.4004 21.923 22.7727 23.8534ZM21.6447 31.5997L21.178 31.0944L22.656 29.8117C25.4564 27.324 27.9975 25.549 30.2793 24.4866C32.5611 23.4241 34.6484 22.8929 36.5413 22.8929C39.0305 22.8929 41.053 23.6573 42.6088 25.1862C44.1905 26.6892 44.9813 29.0991 44.9813 32.4159V55.7376C44.9813 56.1523 45.0591 56.4891 45.2147 56.7483C45.3962 56.9815 45.6685 57.137 46.0315 57.2147L47.7428 57.5645C48.0021 57.6163 48.1318 57.72 48.1318 57.8755C48.1318 58.0569 48.0151 58.1476 47.7817 58.1476H30.396C30.1367 58.1476 30.007 58.0569 30.007 57.8755C30.007 57.72 30.1626 57.6034 30.4737 57.5257L32.3018 57.1758C32.6907 57.0981 32.95 56.9426 33.0797 56.7094C33.2352 56.4503 33.313 56.1263 33.313 55.7376V33.6209C33.313 31.6515 32.8982 30.2263 32.0684 29.3452C31.2646 28.4642 30.1237 28.0237 28.6457 28.0237C27.7122 28.0237 26.7658 28.218 25.8064 28.6067C24.873 28.9954 23.9525 29.5785 23.0449 30.3559L21.6447 31.5997ZM43.6978 31.5997L43.2311 31.0944L44.7091 29.8117C47.5095 27.324 50.0506 25.549 52.3323 24.4866C54.6142 23.4241 56.7015 22.8929 58.5943 22.8929C61.0836 22.8929 63.1061 23.6573 64.6618 25.1862C66.2435 26.6892 67.0344 29.0991 67.0344 32.4159V55.7376C67.0344 56.1523 67.1122 56.4891 67.2678 56.7483C67.4493 56.9815 67.7215 57.137 68.0845 57.2147L69.757 57.5645C69.9385 57.5904 70.0552 57.6293 70.1071 57.6811C70.1589 57.733 70.1848 57.7977 70.1848 57.8755C70.1848 57.9532 70.1589 58.018 70.1071 58.0698C70.0552 58.1217 69.9644 58.1476 69.8348 58.1476H52.449C52.1897 58.1476 52.0601 58.0569 52.0601 57.8755C52.0601 57.72 52.2157 57.6034 52.5268 57.5257L54.3549 57.1758C54.7438 57.0981 55.0031 56.9426 55.1327 56.7094C55.2883 56.4503 55.3661 56.1263 55.3661 55.7376V33.6209C55.3661 31.6515 54.9512 30.2263 54.1215 29.3452C53.3177 28.4642 52.1768 28.0237 50.6988 28.0237C49.7653 28.0237 48.8189 28.218 47.8595 28.6067C46.926 28.9954 46.0055 29.5785 45.098 30.3559L43.6978 31.5997Z" fill="#F9F9F9"/>
<path d="M10.2118 25.6291C7.87813 23.2053 4.02003 23.1302 1.59448 25.4615C3.92815 27.8854 7.78626 27.9604 10.2118 25.6291Z" fill="#F9F9F9"/>
<path d="M11.0165 24.4387C8.68282 22.0148 8.7573 18.16 11.1828 15.8287C13.5165 18.2526 13.442 22.1074 11.0165 24.4387Z" fill="#F9F9F9"/>
<path d="M105.521 38.6133C105.521 38.847 105.443 39.0419 105.287 39.1977C105.131 39.3536 104.884 39.4315 104.547 39.4315H80.2721V38.6133H93.2471C93.6887 38.6133 93.9095 38.3535 93.9095 37.834C93.9095 32.9245 93.364 29.3528 92.273 27.1189C91.182 24.859 89.9482 23.729 88.5714 23.729C87.4805 23.729 86.5193 24.1706 85.6881 25.0538C84.8569 25.911 84.1945 27.3137 83.701 29.2619C83.2334 31.1841 82.9996 33.7298 82.9996 36.8988C82.9996 42.2759 84.0906 46.2502 86.2726 48.8218C88.4805 51.3675 91.3898 52.6403 95.0005 52.6403C97.7799 52.6403 100.079 51.913 101.897 50.4583C103.741 49.0036 104.715 47.0295 104.819 44.5358C104.819 44.4319 104.845 44.3669 104.897 44.341C104.975 44.289 105.027 44.263 105.053 44.263C105.131 44.263 105.196 44.289 105.248 44.341C105.3 44.3669 105.326 44.4578 105.326 44.6137C105.248 47.3672 104.495 49.8479 103.066 52.0558C101.663 54.2378 99.7671 55.9652 97.3773 57.238C95.0135 58.4849 92.325 59.1083 89.3118 59.1083C85.9609 59.1083 82.9866 58.381 80.389 56.9263C77.8174 55.4457 75.7913 53.3936 74.3106 50.77C72.856 48.1464 72.1287 45.0943 72.1287 41.6135C72.1287 37.821 72.856 34.535 74.3106 31.7556C75.7913 28.9502 77.8693 26.7942 80.5449 25.2876C83.2204 23.755 86.3635 22.9887 89.9741 22.9887C93.1432 22.9887 95.8837 23.6641 98.1955 25.0148C100.533 26.3656 102.339 28.2229 103.612 30.5867C104.884 32.9505 105.521 35.626 105.521 38.6133Z" fill="#F9F9F9"/>
<path d="M110.316 25.1317L107.16 24.4304C107.004 24.3784 106.9 24.3265 106.848 24.2745C106.796 24.1966 106.77 24.1187 106.77 24.0407C106.77 23.9888 106.796 23.9368 106.848 23.8849C106.9 23.807 106.965 23.768 107.043 23.768H110.316C110.446 23.768 110.55 23.755 110.627 23.729C110.731 23.6771 110.848 23.5992 110.978 23.4953L120.446 15.7804C120.628 15.6245 120.81 15.5076 120.992 15.4297C121.174 15.3258 121.343 15.2739 121.498 15.2739C121.654 15.2739 121.784 15.3388 121.888 15.4687C122.018 15.5726 122.083 15.7544 122.083 16.0142V48.1984C122.083 50.4063 122.485 52.0558 123.291 53.1468C124.096 54.2118 125.2 54.7443 126.603 54.7443C127.07 54.7443 127.525 54.6664 127.966 54.5105C128.408 54.3547 128.811 54.1079 129.174 53.7702C129.564 53.4325 129.902 52.978 130.187 52.4065C130.499 51.809 130.746 51.0947 130.928 50.2635C130.98 50.0816 131.071 49.9907 131.2 49.9907C131.33 49.9907 131.369 50.0946 131.317 50.3024C130.928 52.2766 130.33 53.9131 129.525 55.2119C128.72 56.4847 127.655 57.4458 126.33 58.0952C125.005 58.7446 123.369 59.0693 121.42 59.0693C117.992 59.0693 115.368 58.2771 113.55 56.6925C111.731 55.082 110.822 52.6143 110.822 49.2894V25.8721C110.822 25.6383 110.783 25.4694 110.705 25.3655C110.653 25.2356 110.524 25.1577 110.316 25.1317ZM118.615 24.6642L119.005 23.768H131.122C131.252 23.768 131.343 23.794 131.395 23.8459C131.473 23.8719 131.512 23.9498 131.512 24.0797C131.512 24.2356 131.408 24.3784 131.2 24.5083C131.019 24.6122 130.772 24.6642 130.46 24.6642H118.615Z" fill="#F9F9F9"/>
<path d="M153.275 54.7054V54.2768L152.729 54.7833V28.0151C152.729 26.6124 152.417 25.5344 151.794 24.7811C151.171 24.0018 150.313 23.6121 149.222 23.6121C147.976 23.6121 147.014 23.9498 146.339 24.6252C145.69 25.3006 145.365 26.1318 145.365 27.1189V30.7425C145.365 32.2751 144.807 33.5999 143.69 34.7169C142.573 35.8079 141.118 36.3534 139.326 36.3534C138.105 36.3534 137.092 36.0027 136.286 35.3013C135.507 34.574 135.118 33.483 135.118 32.0284C135.118 30.6257 135.702 29.2359 136.871 27.8592C138.04 26.4565 139.78 25.3006 142.092 24.3914C144.404 23.4563 147.261 22.9887 150.664 22.9887C155.288 22.9887 158.743 23.9239 161.029 25.7941C163.34 27.6384 164.496 30.275 164.496 33.7038V53.4585C164.496 54.2118 164.639 54.7703 164.925 55.134C165.237 55.4976 165.6 55.6795 166.016 55.6795C166.432 55.6795 166.821 55.5366 167.185 55.2509C167.574 54.9391 167.821 54.4196 167.925 53.6923C167.951 53.5884 167.977 53.5235 168.003 53.4975C168.055 53.4455 168.094 53.4196 168.12 53.4196C168.198 53.4196 168.25 53.4455 168.276 53.4975C168.328 53.5235 168.354 53.5884 168.354 53.6923C168.354 54.2378 168.081 54.9391 167.535 55.7964C167.016 56.6276 166.146 57.3809 164.925 58.0563C163.73 58.7316 162.094 59.0693 160.015 59.0693C157.626 59.0693 155.898 58.6537 154.833 57.8225C153.794 56.9653 153.275 55.9262 153.275 54.7054ZM133.052 50.6531C133.052 47.6659 134.286 45.3021 136.754 43.5617C139.248 41.7953 143.3 40.9121 148.911 40.9121C150.287 40.9121 151.391 41.055 152.223 41.3407C153.08 41.6265 153.872 41.9901 154.599 42.4317L154.249 42.7434C153.495 42.3538 152.755 42.0681 152.028 41.8862C151.301 41.7044 150.469 41.6135 149.534 41.6135C147.976 41.6135 146.768 42.2369 145.911 43.4838C145.053 44.7306 144.625 46.5619 144.625 48.9777C144.625 51.2895 145.053 53.0039 145.911 54.1209C146.768 55.2379 147.872 55.7964 149.222 55.7964C150.054 55.7964 150.885 55.5626 151.716 55.095C152.573 54.6274 153.262 53.991 153.781 53.1858L154.288 53.4585C153.197 55.2768 151.651 56.6665 149.651 57.6277C147.651 58.5888 145.495 59.0693 143.183 59.0693C140.222 59.0693 137.793 58.29 135.897 56.7315C134.001 55.147 133.052 53.1208 133.052 50.6531Z" fill="#F9F9F9"/>
<path d="M185.423 58.1732C187.008 58.1732 188.254 57.7705 189.164 56.9653C190.099 56.134 190.566 55.056 190.566 53.7313C190.566 52.7702 190.332 51.9 189.865 51.1207C189.423 50.3414 188.657 49.6141 187.566 48.9387C186.475 48.2633 184.968 47.6009 183.046 46.9515C179.799 45.8605 177.254 44.6786 175.409 43.4058C173.591 42.107 172.305 40.6654 171.552 39.0808C170.799 37.4963 170.422 35.704 170.422 33.7038C170.422 30.223 171.591 27.5605 173.929 25.7162C176.267 23.8719 179.384 22.9498 183.28 22.9498C184.891 22.9498 186.215 23.1056 187.254 23.4173C188.293 23.7031 189.086 24.0018 189.631 24.3135C190.203 24.5992 190.566 24.7421 190.722 24.7421C191.008 24.7421 191.527 24.5992 192.281 24.3135C193.06 24.0018 193.826 23.7031 194.58 23.4173C195.333 23.1056 195.826 22.9498 196.06 22.9498C196.19 22.9498 196.307 22.9757 196.411 23.0277C196.515 23.0796 196.58 23.2095 196.606 23.4173L198.476 35.2624C198.528 35.4702 198.528 35.652 198.476 35.8079C198.45 35.9377 198.398 36.0287 198.32 36.0806C198.242 36.1066 198.164 36.1066 198.086 36.0806C198.034 36.0287 197.969 35.9637 197.891 35.8858C196.151 32.7946 194.528 30.3659 193.021 28.5995C191.54 26.8332 190.047 25.5863 188.54 24.859C187.06 24.1317 185.475 23.768 183.787 23.768C182.072 23.768 180.76 24.2096 179.851 25.0928C178.942 25.95 178.487 27.0929 178.487 28.5216C178.487 29.5606 178.734 30.4958 179.228 31.327C179.721 32.1582 180.591 32.9375 181.838 33.6648C183.085 34.3662 184.865 35.0416 187.176 35.691C190.06 36.5222 192.346 37.5482 194.034 38.7691C195.748 39.964 196.969 41.3407 197.697 42.8993C198.45 44.4579 198.827 46.1723 198.827 48.0425C198.827 50.3024 198.268 52.2636 197.151 53.9261C196.034 55.5626 194.541 56.8354 192.67 57.7445C190.8 58.6537 188.709 59.1083 186.397 59.1083C184.968 59.1083 183.722 58.9135 182.657 58.5238C181.592 58.1342 180.747 57.7445 180.124 57.3549C179.501 56.9653 179.111 56.7705 178.955 56.7705C178.773 56.7705 178.345 56.9523 177.669 57.316C176.994 57.6536 176.292 57.9913 175.565 58.329C174.838 58.6927 174.344 58.8745 174.085 58.8745C173.955 58.8745 173.812 58.7966 173.656 58.6407C173.5 58.5108 173.396 58.2771 173.344 57.9394L171.825 48.0425C171.799 47.7308 171.799 47.51 171.825 47.3801C171.877 47.2243 171.954 47.1204 172.058 47.0684C172.11 47.0165 172.162 47.0165 172.214 47.0684C172.292 47.1204 172.37 47.2113 172.448 47.3412C174.786 51.2116 177.007 53.991 179.111 55.6795C181.215 57.3419 183.319 58.1732 185.423 58.1732Z" fill="#F9F9F9"/>
<path d="M235.122 38.6133C235.122 38.847 235.044 39.0419 234.888 39.1977C234.732 39.3536 234.485 39.4315 234.147 39.4315H209.873V38.6133H222.848C223.289 38.6133 223.51 38.3535 223.51 37.834C223.51 32.9245 222.965 29.3528 221.874 27.1189C220.783 24.859 219.549 23.729 218.172 23.729C217.081 23.729 216.12 24.1706 215.289 25.0538C214.458 25.911 213.795 27.3137 213.302 29.2619C212.834 31.1841 212.6 33.7298 212.6 36.8988C212.6 42.2759 213.691 46.2502 215.873 48.8218C218.081 51.3675 220.991 52.6403 224.601 52.6403C227.381 52.6403 229.68 51.913 231.498 50.4583C233.342 49.0036 234.316 47.0295 234.42 44.5358C234.42 44.4319 234.446 44.3669 234.498 44.341C234.576 44.289 234.628 44.263 234.654 44.263C234.732 44.263 234.797 44.289 234.849 44.341C234.901 44.3669 234.927 44.4578 234.927 44.6137C234.849 47.3672 234.095 49.8479 232.667 52.0558C231.264 54.2378 229.368 55.9652 226.978 57.238C224.614 58.4849 221.926 59.1083 218.913 59.1083C215.562 59.1083 212.587 58.381 209.99 56.9263C207.418 55.4457 205.392 53.3936 203.911 50.77C202.457 48.1464 201.729 45.0943 201.729 41.6135C201.729 37.821 202.457 34.535 203.911 31.7556C205.392 28.9502 207.47 26.7942 210.146 25.2876C212.821 23.755 215.964 22.9887 219.575 22.9887C222.744 22.9887 225.484 23.6641 227.796 25.0148C230.134 26.3656 231.939 28.2229 233.212 30.5867C234.485 32.9505 235.122 35.626 235.122 38.6133Z" fill="#F9F9F9"/>
<path d="M270.737 38.6133C270.737 38.847 270.659 39.0419 270.503 39.1977C270.347 39.3536 270.101 39.4315 269.763 39.4315H245.488V38.6133H258.463C258.905 38.6133 259.126 38.3535 259.126 37.834C259.126 32.9245 258.58 29.3528 257.489 27.1189C256.398 24.859 255.164 23.729 253.788 23.729C252.697 23.729 251.736 24.1706 250.904 25.0538C250.073 25.911 249.411 27.3137 248.917 29.2619C248.45 31.1841 248.216 33.7298 248.216 36.8988C248.216 42.2759 249.307 46.2502 251.489 48.8218C253.697 51.3675 256.606 52.6403 260.217 52.6403C262.996 52.6403 265.295 51.913 267.113 50.4583C268.958 49.0036 269.932 47.0295 270.036 44.5358C270.036 44.4319 270.062 44.3669 270.114 44.341C270.191 44.289 270.243 44.263 270.269 44.263C270.347 44.263 270.412 44.289 270.464 44.341C270.516 44.3669 270.542 44.4578 270.542 44.6137C270.464 47.3672 269.711 49.8479 268.282 52.0558C266.88 54.2378 264.983 55.9652 262.594 57.238C260.23 58.4849 257.541 59.1083 254.528 59.1083C251.177 59.1083 248.203 58.381 245.605 56.9263C243.034 55.4457 241.007 53.3936 239.527 50.77C238.072 48.1464 237.345 45.0943 237.345 41.6135C237.345 37.821 238.072 34.535 239.527 31.7556C241.007 28.9502 243.086 26.7942 245.761 25.2876C248.437 23.755 251.58 22.9887 255.19 22.9887C258.359 22.9887 261.1 23.6641 263.412 25.0148C265.75 26.3656 267.555 28.2229 268.828 30.5867C270.101 32.9505 270.737 35.626 270.737 38.6133Z" fill="#F9F9F9"/>
<path d="M297.858 54.1599V53.965V4.94842C297.858 4.76659 297.806 4.63671 297.702 4.55878C297.625 4.45488 297.482 4.40293 297.274 4.40293H295.248C295.092 4.40293 294.975 4.37695 294.897 4.325C294.845 4.24707 294.819 4.16914 294.819 4.09121C294.819 3.98731 294.858 3.92237 294.936 3.8964C295.014 3.84444 295.105 3.80548 295.209 3.7795L308.145 0.155859C308.431 0.0779303 308.625 0.0389662 308.729 0.0389662C308.833 0.012989 308.95 0 309.08 0C309.236 0 309.353 0.0519532 309.431 0.155859C309.509 0.233784 309.547 0.350675 309.547 0.506532V55.9912C309.547 56.3808 309.625 56.6925 309.781 56.9263C309.937 57.1341 310.171 57.277 310.483 57.3549L312.314 57.7056C312.47 57.7316 312.574 57.7835 312.626 57.8614C312.704 57.9134 312.743 57.9783 312.743 58.0563C312.743 58.1342 312.704 58.1991 312.626 58.2511C312.574 58.303 312.496 58.329 312.392 58.329H298.832C298.521 58.329 298.274 58.2511 298.092 58.0952C297.936 57.9134 297.858 57.6536 297.858 57.316V54.1599ZM273.467 42.159C273.467 38.2626 274.181 34.8857 275.61 32.0284C277.065 29.145 279.039 26.9241 281.532 25.3655C284.052 23.781 286.883 22.9887 290.027 22.9887C292.494 22.9887 294.481 23.4173 295.988 24.2745C297.495 25.1317 298.703 26.3916 299.612 28.054L298.754 28.4826C298.183 27.1838 297.417 26.1968 296.456 25.5214C295.495 24.846 294.326 24.5083 292.949 24.5083C291.494 24.5083 290.195 25.0148 289.052 26.0279C287.91 27.015 287 28.7164 286.325 31.1322C285.676 33.548 285.351 36.8859 285.351 41.1459C285.351 44.8865 285.624 47.8997 286.169 50.1855C286.715 52.4714 287.481 54.1339 288.468 55.1729C289.455 56.212 290.598 56.7315 291.897 56.7315C293.066 56.7315 294.222 56.3938 295.365 55.7184C296.534 55.0171 297.612 53.9131 298.599 52.4065L299.105 52.991C297.443 55.147 295.741 56.7055 294.001 57.6666C292.261 58.6277 290.273 59.1083 288.039 59.1083C285.13 59.1083 282.584 58.4329 280.402 57.0822C278.22 55.7314 276.519 53.7962 275.298 51.2765C274.077 48.7309 273.467 45.6917 273.467 42.159Z" fill="#F9F9F9"/>
<path d="M319.587 54.1164L331.04 54.1164C331.249 54.1164 331.402 54.0949 331.5 54.0519C331.592 54.0028 331.657 53.9292 331.694 53.831L331.786 53.5456C331.835 53.4228 331.899 53.3338 331.979 53.2786C332.053 53.2172 332.142 53.1865 332.246 53.1865C332.387 53.1865 332.498 53.2326 332.577 53.3246C332.657 53.4167 332.697 53.5671 332.697 53.7757L332.697 57.6885C332.697 57.891 332.657 58.0383 332.577 58.1304C332.498 58.2225 332.387 58.2685 332.246 58.2685C332.142 58.2685 332.053 58.2409 331.979 58.1856C331.899 58.1304 331.835 58.0414 331.786 57.9186L331.694 57.624C331.657 57.5258 331.592 57.4553 331.5 57.4123C331.408 57.3632 331.255 57.3386 331.04 57.3386L321.364 57.3386C321.192 57.3386 321.069 57.3632 320.996 57.4123C320.922 57.4614 320.873 57.5381 320.848 57.6425L320.802 57.9923C320.772 58.1089 320.722 58.1948 320.655 58.2501C320.587 58.2992 320.505 58.3237 320.406 58.3237C320.284 58.3237 320.189 58.29 320.121 58.2225C320.047 58.1549 319.974 58.0291 319.9 57.845L319.191 55.9208C319.087 55.6385 319.013 55.4176 318.97 55.258C318.927 55.0984 318.906 54.9572 318.906 54.8345C318.906 54.5951 318.97 54.4171 319.099 54.3005C319.222 54.1778 319.384 54.1164 319.587 54.1164ZM331.491 46.5854L331.298 46.5854L331.279 46.8155L325.534 46.8155C325.203 46.8155 324.942 46.9014 324.752 47.0733C324.562 47.2452 324.466 47.4815 324.466 47.7822C324.466 48.0461 324.528 48.2579 324.651 48.4174C324.767 48.577 324.914 48.6568 325.092 48.6568L325.995 48.6568C326.437 48.6568 326.78 48.8072 327.026 49.1079C327.265 49.4025 327.385 49.823 327.385 50.3692C327.385 50.8295 327.281 51.1763 327.072 51.4095C326.863 51.6428 326.575 51.7594 326.206 51.7594C325.814 51.7594 325.424 51.5906 325.037 51.253C324.651 50.9093 324.331 50.3999 324.08 49.7248C323.822 49.0496 323.693 48.2088 323.693 47.2022C323.693 45.9931 323.926 45.0939 324.393 44.5047C324.859 43.9155 325.491 43.6209 326.289 43.6209L330.893 43.6209C331.034 43.6209 331.147 43.5902 331.233 43.5288C331.313 43.4613 331.353 43.3662 331.353 43.2434C331.353 43.1207 331.322 43.0286 331.261 42.9672C331.199 42.8997 331.138 42.8383 331.077 42.7831C331.034 42.7463 331 42.7094 330.975 42.6726C330.945 42.6296 330.929 42.5805 330.929 42.5253C330.929 42.4394 330.963 42.378 331.031 42.3412C331.092 42.2982 331.172 42.2767 331.27 42.2767C331.503 42.2767 331.749 42.3627 332.007 42.5345C332.264 42.7002 332.485 42.9519 332.669 43.2894C332.847 43.6209 332.936 44.0382 332.936 44.5415C332.936 45.1553 332.804 45.6494 332.541 46.0238C332.27 46.3982 331.921 46.5854 331.491 46.5854ZM330.754 52.1276C329.957 52.1276 329.321 51.7686 328.849 51.0505C328.37 50.3324 328.131 49.3227 328.131 48.0216C328.131 47.641 328.161 47.3065 328.223 47.0181C328.278 46.7235 328.355 46.4749 328.453 46.2723L329.125 46.5209C329.039 46.6928 328.975 46.8615 328.932 47.0273C328.889 47.193 328.867 47.374 328.867 47.5704C328.867 47.9694 328.984 48.2855 329.217 48.5187C329.45 48.7458 329.779 48.8594 330.202 48.8594C330.638 48.8594 330.969 48.7581 331.196 48.5555C331.423 48.3469 331.537 48.0737 331.537 47.7362C331.537 47.4845 331.479 47.2452 331.362 47.0181C331.239 46.7848 331.086 46.5976 330.902 46.4565L331.509 46.2447C331.964 46.5639 332.316 47.0058 332.568 47.5704C332.814 48.129 332.936 48.7243 332.936 49.3565C332.936 50.1851 332.734 50.8541 332.329 51.3635C331.918 51.8729 331.393 52.1276 330.754 52.1276ZM319.587 37.6892L331.868 37.6892L332.577 39.0333C332.719 39.4323 332.811 39.7146 332.854 39.8803C332.896 40.046 332.918 40.2025 332.918 40.3499C332.918 40.5156 332.869 40.6506 332.771 40.7549C332.679 40.8593 332.541 40.9114 332.356 40.9114L321.364 40.9114C321.192 40.9114 321.069 40.936 320.996 40.9851C320.922 41.0342 320.873 41.1109 320.848 41.2153L320.802 41.5651C320.772 41.6817 320.722 41.7676 320.655 41.8229C320.587 41.872 320.505 41.8965 320.406 41.8965C320.284 41.8965 320.189 41.8628 320.121 41.7953C320.047 41.7278 319.974 41.6019 319.9 41.4178L319.191 39.4937C319.087 39.2113 319.013 38.9904 318.97 38.8308C318.927 38.6712 318.906 38.53 318.906 38.4073C318.906 38.1679 318.97 37.9899 319.099 37.8733C319.222 37.7506 319.384 37.6892 319.587 37.6892ZM326.777 38.2784L326.225 38.794C325.427 38.2907 324.804 37.7229 324.356 37.0908C323.908 36.4525 323.684 35.7344 323.684 34.9365C323.684 34.2122 323.868 33.5647 324.236 32.9939C324.605 32.417 325.117 31.9658 325.774 31.6405C326.43 31.3091 327.185 31.1434 328.039 31.1434C329.027 31.1434 329.889 31.3429 330.626 31.7418C331.356 32.1408 331.924 32.6839 332.329 33.3714C332.734 34.0526 332.936 34.8229 332.936 35.6822C332.936 36.4126 332.774 37.0539 332.448 37.6063C332.123 38.1587 331.641 38.6252 331.003 39.0057L330.423 38.214C330.871 37.9255 331.199 37.6278 331.408 37.3209C331.611 37.0079 331.712 36.6703 331.712 36.3082C331.712 35.9522 331.598 35.6392 331.371 35.3692C331.138 35.093 330.776 34.8781 330.285 34.7247C329.794 34.5651 329.156 34.4853 328.37 34.4853C327.646 34.4853 327.057 34.5621 326.602 34.7155C326.142 34.8689 325.801 35.0807 325.58 35.3507C325.359 35.6147 325.249 35.9215 325.249 36.2714C325.249 36.6581 325.372 37.0171 325.617 37.3485C325.863 37.68 326.249 37.9899 326.777 38.2784ZM324.651 26.0342C324.651 26.4271 324.743 26.7278 324.927 26.9365C325.105 27.139 325.332 27.2403 325.608 27.2403C325.774 27.2403 325.927 27.2065 326.068 27.139C326.21 27.0654 326.338 26.9211 326.455 26.7063C326.572 26.4854 326.676 26.157 326.768 25.7212C326.964 24.6901 327.216 23.8983 327.523 23.346C327.824 22.7936 328.177 22.413 328.582 22.2044C328.987 21.9957 329.444 21.8913 329.953 21.8913C330.88 21.8913 331.611 22.2166 332.145 22.8672C332.672 23.5117 332.936 24.4538 332.936 25.6936C332.936 26.1294 332.9 26.4823 332.826 26.7523C332.758 27.0163 332.688 27.2311 332.614 27.3968C332.541 27.5625 332.504 27.7098 332.504 27.8387C332.504 27.9737 332.541 28.0904 332.614 28.1886C332.688 28.2806 332.758 28.3727 332.826 28.4648C332.9 28.5507 332.936 28.6612 332.936 28.7962C332.936 28.9189 332.9 29.0141 332.826 29.0816C332.752 29.1491 332.623 29.2105 332.439 29.2657L330.653 29.8089C330.389 29.8887 330.181 29.9102 330.027 29.8733C329.868 29.8365 329.757 29.7414 329.696 29.5879C329.634 29.4222 329.634 29.278 329.696 29.1552C329.751 29.0325 329.861 28.9189 330.027 28.8146C330.487 28.5261 330.859 28.2285 331.141 27.9216C331.423 27.6086 331.632 27.2833 331.767 26.9457C331.902 26.602 331.97 26.2491 331.97 25.8869C331.97 25.4205 331.878 25.0706 331.694 24.8374C331.503 24.6042 331.255 24.4876 330.948 24.4876C330.758 24.4876 330.589 24.5367 330.441 24.6349C330.294 24.7331 330.159 24.9233 330.036 25.2057C329.914 25.4819 329.797 25.8931 329.687 26.4393C329.521 27.274 329.297 27.9369 329.014 28.4279C328.726 28.9189 328.376 29.2719 327.965 29.4867C327.554 29.7015 327.078 29.8089 326.538 29.8089C325.961 29.8089 325.461 29.6585 325.037 29.3578C324.608 29.0509 324.276 28.6335 324.043 28.1057C323.804 27.5717 323.684 26.961 323.684 26.2736C323.684 25.8256 323.721 25.4696 323.794 25.2057C323.868 24.9417 323.945 24.7269 324.025 24.5612C324.098 24.3894 324.135 24.2298 324.135 24.0825C324.135 23.929 324.098 23.8032 324.025 23.705C323.951 23.6007 323.877 23.4994 323.804 23.4012C323.724 23.303 323.684 23.1895 323.684 23.0606C323.684 22.9501 323.724 22.858 323.804 22.7844C323.883 22.7046 324.021 22.6463 324.218 22.6094L325.912 22.2412C326.17 22.1921 326.369 22.1859 326.51 22.2228C326.645 22.2535 326.747 22.3455 326.814 22.499C326.875 22.6585 326.869 22.7997 326.796 22.9225C326.722 23.0391 326.593 23.1618 326.409 23.2907C325.765 23.6958 325.31 24.1377 325.046 24.6165C324.783 25.0952 324.651 25.5678 324.651 26.0342Z" fill="#F9F9F9"/>
</svg>
