<svg viewBox="0 0 80 80" fill="none" xmlns="http://www.w3.org/2000/svg">
<rect width="80" height="80" rx="16" fill="white"/>
<path fill-rule="evenodd" clip-rule="evenodd" d="M39.7903 13.7852C37.917 13.7852 36.3984 15.3038 36.3984 17.1771L36.3984 25.6887L37.4184 28.6287C37.5033 30.7656 34.8811 31.8518 33.43 30.2807L32.0724 27.4806L26.0538 21.462C24.7291 20.1373 22.5815 20.1373 21.2569 21.462C19.9322 22.7866 19.9322 24.9342 21.2569 26.2589L27.2755 32.2775L30.0756 33.6351C31.6467 35.0861 30.5605 37.7084 28.4236 37.6235L25.4835 36.6035L16.972 36.6035C15.0987 36.6035 13.5801 38.1221 13.5801 39.9954C13.5801 41.8687 15.0987 43.3873 16.972 43.3873H25.4836L28.4236 42.3673C30.5605 42.2824 31.6467 44.9047 30.0756 46.3557L27.2755 47.7134L21.2569 53.732C19.9322 55.0566 19.9322 57.2042 21.2569 58.5289C22.5815 59.8535 24.7291 59.8535 26.0538 58.5289L32.0723 52.5103L33.43 49.7101C34.881 48.139 37.5033 49.2252 37.4184 51.3621L36.3984 54.302L36.3984 62.8138C36.3984 64.6871 37.917 66.2057 39.7903 66.2057C41.6636 66.2057 43.1823 64.6871 43.1823 62.8138L43.1822 54.3022L42.1622 51.3621C42.0773 49.2252 44.6996 48.139 46.1506 49.7101L47.5083 52.5103L53.5269 58.5289C54.8515 59.8535 56.9992 59.8535 58.3238 58.5289C59.6484 57.2042 59.6484 55.0566 58.3238 53.732L52.3052 47.7134L49.505 46.3557C47.9339 44.9047 49.0201 42.2824 51.157 42.3673L54.097 43.3873L62.6087 43.3873C64.482 43.3873 66.0006 41.8687 66.0006 39.9954C66.0006 39.0503 65.6141 38.1956 64.9905 37.5805L42.2053 14.7952C41.5902 14.1717 40.7354 13.7851 39.7903 13.7852ZM45.3723 25.9537C44.7309 25.3123 43.6567 25.4487 43.1959 26.23L41.8907 28.4431C41.7035 28.7606 41.6503 29.1395 41.7428 29.4962L43.142 34.8932C43.3667 35.7602 44.0438 36.4372 44.9108 36.662L50.3078 38.0612C50.6645 38.1537 51.0434 38.1005 51.3609 37.9133L53.574 36.6081C54.3553 36.1473 54.4917 35.0731 53.8503 34.4317L45.3723 25.9537Z" fill="black"/>
</svg>
